<svg id="visual" viewBox="0 0 900 600" width="900" height="600" xmlns="http://www.w3.org/2000/svg" xmlns:xlink="http://www.w3.org/1999/xlink" version="1.1"><path d="M0 462L7.8 475.3C15.7 488.7 31.3 515.3 47.2 524.7C63 534 79 526 94.8 519.5C110.7 513 126.3 508 142 506.3C157.7 504.7 173.3 506.3 189.2 501.8C205 497.3 221 486.7 236.8 488.5C252.7 490.3 268.3 504.7 284.2 517.2C300 529.7 316 540.3 331.8 534.7C347.7 529 363.3 507 379 501.5C394.7 496 410.3 507 426.2 503.5C442 500 458 482 473.8 489.3C489.7 496.7 505.3 529.3 521 541.3C536.7 553.3 552.3 544.7 568.2 538C584 531.3 600 526.7 615.8 527.7C631.7 528.7 647.3 535.3 663.2 532.8C679 530.3 695 518.7 710.8 506.3C726.7 494 742.3 481 758 477.2C773.7 473.3 789.3 478.7 805.2 487.7C821 496.7 837 509.3 852.8 518C868.7 526.7 884.3 531.3 892.2 533.7L900 536L900 601L892.2 601C884.3 601 868.7 601 852.8 601C837 601 821 601 805.2 601C789.3 601 773.7 601 758 601C742.3 601 726.7 601 710.8 601C695 601 679 601 663.2 601C647.3 601 631.7 601 615.8 601C600 601 584 601 568.2 601C552.3 601 536.7 601 521 601C505.3 601 489.7 601 473.8 601C458 601 442 601 426.2 601C410.3 601 394.7 601 379 601C363.3 601 347.7 601 331.8 601C316 601 300 601 284.2 601C268.3 601 252.7 601 236.8 601C221 601 205 601 189.2 601C173.3 601 157.7 601 142 601C126.3 601 110.7 601 94.8 601C79 601 63 601 47.2 601C31.3 601 15.7 601 7.8 601L0 601Z" fill="currentColor" stroke-linecap="round" stroke-linejoin="miter"></path></svg>